<svg width="51" height="35" viewBox="0 0 51 35" fill="none" xmlns="http://www.w3.org/2000/svg">
<mask id="mask0_61_296" style="mask-type:alpha" maskUnits="userSpaceOnUse" x="0" y="0" width="51" height="35">
<path d="M45.7502 0.345276H5.31298C2.68559 0.345276 0.555664 2.39298 0.555664 4.91894V30.0741C0.555664 32.6001 2.68559 34.6478 5.31298 34.6478H45.7502C48.3776 34.6478 50.5075 32.6001 50.5075 30.0741V4.91894C50.5075 2.39298 48.3776 0.345276 45.7502 0.345276Z" fill="white"/>
</mask>
<g mask="url(#mask0_61_296)">
<path d="M45.7502 0.345276H5.31298C2.68559 0.345276 0.555664 2.39298 0.555664 4.91894V30.0741C0.555664 32.6001 2.68559 34.6478 5.31298 34.6478H45.7502C48.3776 34.6478 50.5075 32.6001 50.5075 30.0741V4.91894C50.5075 2.39298 48.3776 0.345276 45.7502 0.345276Z" fill="#73A9DD"/>
<path fill-rule="evenodd" clip-rule="evenodd" d="M0.555664 20.9268H50.5075V23.2136H0.555664V20.9268Z" fill="white"/>
<path fill-rule="evenodd" clip-rule="evenodd" d="M0.555664 14.0663H50.5075V20.9268H0.555664V14.0663Z" fill="black"/>
<path fill-rule="evenodd" clip-rule="evenodd" d="M0.555664 11.7794H50.5075V14.0663H0.555664V11.7794Z" fill="white"/>
<path d="M45.7503 1.48871H5.31311C3.34256 1.48871 1.74512 3.02448 1.74512 4.91896V30.0741C1.74512 31.9686 3.34256 33.5044 5.31311 33.5044H45.7503C47.7209 33.5044 49.3183 31.9686 49.3183 30.0741V4.91896C49.3183 3.02448 47.7209 1.48871 45.7503 1.48871Z" stroke="black" stroke-opacity="0.1"/>
</g>
</svg>
