<svg width="28" height="27" viewBox="0 0 28 27" fill="none" xmlns="http://www.w3.org/2000/svg">
<path d="M14.7764 6.30774H18.949C22.4675 6.30774 25.3207 9.48926 25.3207 13.4142C25.3207 17.3392 22.4675 20.5207 18.949 20.5207H14.7764C18.2949 20.5207 20.8097 17.3392 20.8097 13.4142C20.8097 9.48926 18.2949 6.30774 14.7764 6.30774Z" stroke="#211F37" stroke-opacity="0.53" stroke-width="1.6255" stroke-linecap="round" stroke-linejoin="round"/>
<path d="M9.13633 6.30774C10.1626 6.30774 11.1099 6.58107 11.9218 7.06212C13.9066 8.23196 15.1697 10.6372 15.1697 13.4142C15.1697 16.1912 13.9066 18.5965 11.9218 19.7663C11.1099 20.2474 10.1626 20.5207 9.13633 20.5207C7.37707 20.5207 5.78697 19.7226 4.63668 18.4434C3.47512 17.1533 2.76465 15.3822 2.76465 13.4142C2.76465 11.4463 3.47512 9.67511 4.62541 8.38501C5.78697 7.10585 7.37707 6.30774 9.13633 6.30774Z" stroke="#211F37" stroke-opacity="0.53" stroke-width="1.6255" stroke-linecap="round" stroke-linejoin="round"/>
<path d="M9.13633 6.30774H14.775C18.2935 6.30774 20.8083 9.48926 20.8083 13.4142C20.8083 17.3392 18.2935 20.5207 14.775 20.5207H9.13633C5.61781 20.5207 2.76465 17.3392 2.76465 13.4142C2.76465 11.4463 3.47512 9.67511 4.62541 8.38501C5.78697 7.10585 7.37707 6.30774 9.13633 6.30774Z" stroke="#211F37" stroke-opacity="0.53" stroke-width="1.6255" stroke-linecap="round" stroke-linejoin="round"/>
</svg>
