<svg width="351" height="79" viewBox="0 0 351 79" fill="none" xmlns="http://www.w3.org/2000/svg">
<g filter="url(#filter0_d_1_7855)">
<rect x="4" y="2.02002" width="343" height="70" rx="10" fill="white"/>
<path d="M29.2824 28.02L33.0144 19.56H33.8784L37.6704 28.02H36.6384L35.5824 25.608L36.0264 25.86H30.8544L31.3344 25.608L30.3024 28.02H29.2824ZM33.4344 20.7L31.4904 25.26L31.2024 25.044H35.6664L35.4504 25.26L33.4584 20.7H33.4344ZM38.5386 28.02V23.388C38.5386 23.164 38.5266 22.936 38.5026 22.704C38.4866 22.464 38.4666 22.228 38.4426 21.996H39.3786L39.4986 23.316H39.3546C39.5146 22.86 39.7666 22.508 40.1106 22.26C40.4626 22.012 40.8866 21.888 41.3826 21.888C41.8866 21.888 42.2946 22.008 42.6066 22.248C42.9266 22.488 43.1426 22.86 43.2546 23.364H43.0746C43.2266 22.908 43.4946 22.548 43.8786 22.284C44.2626 22.02 44.7106 21.888 45.2226 21.888C45.8866 21.888 46.3866 22.08 46.7226 22.464C47.0586 22.84 47.2266 23.436 47.2266 24.252V28.02H46.2546V24.312C46.2546 23.744 46.1546 23.332 45.9546 23.076C45.7546 22.812 45.4346 22.68 44.9946 22.68C44.4906 22.68 44.0906 22.856 43.7946 23.208C43.5066 23.552 43.3626 24.016 43.3626 24.6V28.02H42.3906V24.312C42.3906 23.744 42.2906 23.332 42.0906 23.076C41.8906 22.812 41.5706 22.68 41.1306 22.68C40.6266 22.68 40.2306 22.856 39.9426 23.208C39.6546 23.552 39.5106 24.016 39.5106 24.6V28.02H38.5386ZM51.2458 28.128C50.6698 28.128 50.1658 28.004 49.7338 27.756C49.3098 27.5 48.9818 27.14 48.7498 26.676C48.5178 26.204 48.4018 25.648 48.4018 25.008C48.4018 24.36 48.5178 23.804 48.7498 23.34C48.9818 22.876 49.3098 22.52 49.7338 22.272C50.1658 22.016 50.6698 21.888 51.2458 21.888C51.8298 21.888 52.3338 22.016 52.7578 22.272C53.1898 22.52 53.5218 22.876 53.7538 23.34C53.9938 23.804 54.1138 24.36 54.1138 25.008C54.1138 25.648 53.9938 26.204 53.7538 26.676C53.5218 27.14 53.1898 27.5 52.7578 27.756C52.3338 28.004 51.8298 28.128 51.2458 28.128ZM51.2458 27.336C51.8218 27.336 52.2778 27.14 52.6138 26.748C52.9498 26.348 53.1178 25.768 53.1178 25.008C53.1178 24.24 52.9458 23.66 52.6018 23.268C52.2658 22.868 51.8138 22.668 51.2458 22.668C50.6778 22.668 50.2258 22.868 49.8898 23.268C49.5538 23.66 49.3858 24.24 49.3858 25.008C49.3858 25.768 49.5538 26.348 49.8898 26.748C50.2258 27.14 50.6778 27.336 51.2458 27.336ZM57.4533 28.128C56.7413 28.128 56.2013 27.932 55.8333 27.54C55.4733 27.148 55.2933 26.548 55.2933 25.74V21.996H56.2653V25.716C56.2653 26.268 56.3773 26.676 56.6013 26.94C56.8253 27.196 57.1733 27.324 57.6453 27.324C58.1733 27.324 58.5973 27.152 58.9173 26.808C59.2373 26.464 59.3973 26.004 59.3973 25.428V21.996H60.3693V28.02H59.4213V26.664H59.5773C59.4093 27.128 59.1373 27.488 58.7613 27.744C58.3933 28 57.9573 28.128 57.4533 28.128ZM61.955 28.02V23.388C61.955 23.164 61.943 22.936 61.919 22.704C61.903 22.464 61.883 22.228 61.859 21.996H62.795L62.915 23.316H62.771C62.947 22.852 63.227 22.5 63.611 22.26C64.003 22.012 64.455 21.888 64.967 21.888C65.679 21.888 66.215 22.08 66.575 22.464C66.943 22.84 67.127 23.436 67.127 24.252V28.02H66.155V24.312C66.155 23.744 66.039 23.332 65.807 23.076C65.583 22.812 65.231 22.68 64.751 22.68C64.191 22.68 63.747 22.852 63.419 23.196C63.091 23.54 62.927 24 62.927 24.576V28.02H61.955ZM70.8223 28.128C70.2303 28.128 69.7783 27.96 69.4663 27.624C69.1543 27.28 68.9983 26.764 68.9983 26.076V22.752H67.8223V21.996H68.9983V20.352L69.9703 20.076V21.996H71.6983V22.752H69.9703V25.968C69.9703 26.448 70.0503 26.792 70.2103 27C70.3783 27.2 70.6263 27.3 70.9543 27.3C71.1063 27.3 71.2423 27.288 71.3623 27.264C71.4823 27.232 71.5903 27.196 71.6863 27.156V27.972C71.5743 28.02 71.4383 28.056 71.2783 28.08C71.1263 28.112 70.9743 28.128 70.8223 28.128Z" fill="#555555"/>
<path d="M20.3774 54.86V52.796L20.6974 53.1C19.9188 53.0894 19.1881 52.9774 18.5054 52.764C17.8228 52.54 17.2254 52.2147 16.7134 51.788L17.2574 50.476C17.7694 50.8814 18.3134 51.1854 18.8894 51.388C19.4761 51.5907 20.1374 51.692 20.8734 51.692C21.7374 51.692 22.3721 51.532 22.7774 51.212C23.1934 50.8814 23.4014 50.4654 23.4014 49.964C23.4014 49.548 23.2521 49.2174 22.9534 48.972C22.6654 48.7267 22.1748 48.5294 21.4814 48.38L19.8334 48.028C18.8521 47.8147 18.1268 47.4627 17.6574 46.972C17.1881 46.4814 16.9534 45.8307 16.9534 45.02C16.9534 44.3907 17.1028 43.8307 17.4014 43.34C17.7108 42.8494 18.1374 42.46 18.6814 42.172C19.2361 41.884 19.8814 41.7187 20.6174 41.676L20.3774 41.9V39.9H21.6894V41.9L21.4174 41.676C22.0148 41.6974 22.6068 41.82 23.1934 42.044C23.7801 42.2574 24.2761 42.5774 24.6814 43.004L24.1534 44.268C23.7374 43.8627 23.2681 43.564 22.7454 43.372C22.2228 43.1694 21.6468 43.068 21.0174 43.068C20.2494 43.068 19.6414 43.244 19.1934 43.596C18.7561 43.948 18.5374 44.4067 18.5374 44.972C18.5374 45.3987 18.6761 45.7454 18.9534 46.012C19.2308 46.2787 19.6894 46.4814 20.3294 46.62L21.9774 46.972C23.0014 47.1854 23.7641 47.5267 24.2654 47.996C24.7668 48.4654 25.0174 49.0894 25.0174 49.868C25.0174 50.476 24.8628 51.0147 24.5534 51.484C24.2441 51.9427 23.8174 52.3107 23.2734 52.588C22.7401 52.8547 22.1214 53.02 21.4174 53.084L21.6894 52.78V54.86H20.3774ZM27.2872 53.02V51.628H29.9112V43.148H30.7432L27.5432 45.1V43.5L30.3752 41.74H31.5752V51.628H34.0392V53.02H27.2872ZM39.4609 53.164C38.1596 53.164 37.1569 52.668 36.4529 51.676C35.7596 50.6734 35.4129 49.2387 35.4129 47.372C35.4129 45.4734 35.7596 44.0387 36.4529 43.068C37.1569 42.0867 38.1596 41.596 39.4609 41.596C40.7729 41.596 41.7756 42.0867 42.4689 43.068C43.1623 44.0387 43.5089 45.468 43.5089 47.356C43.5089 49.2334 43.1569 50.6734 42.4529 51.676C41.7596 52.668 40.7623 53.164 39.4609 53.164ZM39.4609 51.772C40.2823 51.772 40.8903 51.4147 41.2849 50.7C41.6903 49.9854 41.8929 48.8707 41.8929 47.356C41.8929 45.8307 41.6903 44.7214 41.2849 44.028C40.8903 43.324 40.2823 42.972 39.4609 42.972C38.6503 42.972 38.0423 43.324 37.6369 44.028C37.2316 44.7214 37.0289 45.8254 37.0289 47.34C37.0289 48.8654 37.2316 49.9854 37.6369 50.7C38.0529 51.4147 38.6609 51.772 39.4609 51.772ZM48.7547 53.164C47.4534 53.164 46.4507 52.668 45.7467 51.676C45.0534 50.6734 44.7067 49.2387 44.7067 47.372C44.7067 45.4734 45.0534 44.0387 45.7467 43.068C46.4507 42.0867 47.4534 41.596 48.7547 41.596C50.0667 41.596 51.0694 42.0867 51.7627 43.068C52.456 44.0387 52.8027 45.468 52.8027 47.356C52.8027 49.2334 52.4507 50.6734 51.7467 51.676C51.0534 52.668 50.056 53.164 48.7547 53.164ZM48.7547 51.772C49.576 51.772 50.184 51.4147 50.5787 50.7C50.984 49.9854 51.1867 48.8707 51.1867 47.356C51.1867 45.8307 50.984 44.7214 50.5787 44.028C50.184 43.324 49.576 42.972 48.7547 42.972C47.944 42.972 47.336 43.324 46.9307 44.028C46.5254 44.7214 46.3227 45.8254 46.3227 47.34C46.3227 48.8654 46.5254 49.9854 46.9307 50.7C47.3467 51.4147 47.9547 51.772 48.7547 51.772ZM58.0484 53.164C56.7471 53.164 55.7444 52.668 55.0404 51.676C54.3471 50.6734 54.0004 49.2387 54.0004 47.372C54.0004 45.4734 54.3471 44.0387 55.0404 43.068C55.7444 42.0867 56.7471 41.596 58.0484 41.596C59.3604 41.596 60.3631 42.0867 61.0564 43.068C61.7498 44.0387 62.0964 45.468 62.0964 47.356C62.0964 49.2334 61.7444 50.6734 61.0404 51.676C60.3471 52.668 59.3498 53.164 58.0484 53.164ZM58.0484 51.772C58.8698 51.772 59.4778 51.4147 59.8724 50.7C60.2778 49.9854 60.4804 48.8707 60.4804 47.356C60.4804 45.8307 60.2778 44.7214 59.8724 44.028C59.4778 43.324 58.8698 42.972 58.0484 42.972C57.2378 42.972 56.6298 43.324 56.2244 44.028C55.8191 44.7214 55.6164 45.8254 55.6164 47.34C55.6164 48.8654 55.8191 49.9854 56.2244 50.7C56.6404 51.4147 57.2484 51.772 58.0484 51.772ZM63.4862 53.02V51.116H65.3902V53.02H63.4862ZM70.8391 53.164C69.5377 53.164 68.5351 52.668 67.8311 51.676C67.1377 50.6734 66.7911 49.2387 66.7911 47.372C66.7911 45.4734 67.1377 44.0387 67.8311 43.068C68.5351 42.0867 69.5377 41.596 70.8391 41.596C72.1511 41.596 73.1537 42.0867 73.8471 43.068C74.5404 44.0387 74.8871 45.468 74.8871 47.356C74.8871 49.2334 74.5351 50.6734 73.8311 51.676C73.1377 52.668 72.1404 53.164 70.8391 53.164ZM70.8391 51.772C71.6604 51.772 72.2684 51.4147 72.6631 50.7C73.0684 49.9854 73.2711 48.8707 73.2711 47.356C73.2711 45.8307 73.0684 44.7214 72.6631 44.028C72.2684 43.324 71.6604 42.972 70.8391 42.972C70.0284 42.972 69.4204 43.324 69.0151 44.028C68.6097 44.7214 68.4071 45.8254 68.4071 47.34C68.4071 48.8654 68.6097 49.9854 69.0151 50.7C69.4311 51.4147 70.0391 51.772 70.8391 51.772ZM80.1328 53.164C78.8315 53.164 77.8288 52.668 77.1248 51.676C76.4315 50.6734 76.0848 49.2387 76.0848 47.372C76.0848 45.4734 76.4315 44.0387 77.1248 43.068C77.8288 42.0867 78.8315 41.596 80.1328 41.596C81.4448 41.596 82.4475 42.0867 83.1408 43.068C83.8341 44.0387 84.1808 45.468 84.1808 47.356C84.1808 49.2334 83.8288 50.6734 83.1248 51.676C82.4315 52.668 81.4341 53.164 80.1328 53.164ZM80.1328 51.772C80.9541 51.772 81.5621 51.4147 81.9568 50.7C82.3621 49.9854 82.5648 48.8707 82.5648 47.356C82.5648 45.8307 82.3621 44.7214 81.9568 44.028C81.5621 43.324 80.9541 42.972 80.1328 42.972C79.3221 42.972 78.7141 43.324 78.3088 44.028C77.9035 44.7214 77.7008 45.8254 77.7008 47.34C77.7008 48.8654 77.9035 49.9854 78.3088 50.7C78.7248 51.4147 79.3328 51.772 80.1328 51.772Z" fill="#0F172A"/>
<path d="M136.252 28.02V19.56H137.248V28.02H136.252ZM138.95 28.02V23.388C138.95 23.164 138.938 22.936 138.914 22.704C138.898 22.464 138.878 22.228 138.854 21.996H139.79L139.91 23.316H139.766C139.942 22.852 140.222 22.5 140.606 22.26C140.998 22.012 141.45 21.888 141.962 21.888C142.674 21.888 143.21 22.08 143.57 22.464C143.938 22.84 144.122 23.436 144.122 24.252V28.02H143.15V24.312C143.15 23.744 143.034 23.332 142.802 23.076C142.578 22.812 142.226 22.68 141.746 22.68C141.186 22.68 140.742 22.852 140.414 23.196C140.086 23.54 139.922 24 139.922 24.576V28.02H138.95ZM147.817 28.128C147.225 28.128 146.773 27.96 146.461 27.624C146.149 27.28 145.993 26.764 145.993 26.076V22.752H144.817V21.996H145.993V20.352L146.965 20.076V21.996H148.693V22.752H146.965V25.968C146.965 26.448 147.045 26.792 147.205 27C147.373 27.2 147.621 27.3 147.949 27.3C148.101 27.3 148.237 27.288 148.357 27.264C148.477 27.232 148.585 27.196 148.681 27.156V27.972C148.569 28.02 148.433 28.056 148.273 28.08C148.121 28.112 147.969 28.128 147.817 28.128ZM152.194 28.128C151.25 28.128 150.506 27.856 149.962 27.312C149.418 26.76 149.146 25.996 149.146 25.02C149.146 24.388 149.266 23.84 149.506 23.376C149.746 22.904 150.082 22.54 150.514 22.284C150.946 22.02 151.442 21.888 152.002 21.888C152.554 21.888 153.018 22.004 153.394 22.236C153.77 22.468 154.058 22.8 154.258 23.232C154.458 23.656 154.558 24.16 154.558 24.744V25.104H149.89V24.492H153.922L153.718 24.648C153.718 24.008 153.574 23.508 153.286 23.148C152.998 22.788 152.57 22.608 152.002 22.608C151.402 22.608 150.934 22.82 150.598 23.244C150.262 23.66 150.094 24.224 150.094 24.936V25.044C150.094 25.796 150.278 26.368 150.646 26.76C151.022 27.144 151.546 27.336 152.218 27.336C152.578 27.336 152.914 27.284 153.226 27.18C153.546 27.068 153.85 26.888 154.138 26.64L154.474 27.324C154.21 27.58 153.874 27.78 153.466 27.924C153.066 28.06 152.642 28.128 152.194 28.128ZM155.721 28.02V23.448C155.721 23.208 155.713 22.964 155.697 22.716C155.689 22.468 155.673 22.228 155.649 21.996H156.585L156.705 23.46L156.537 23.472C156.617 23.112 156.757 22.816 156.957 22.584C157.157 22.352 157.393 22.18 157.665 22.068C157.937 21.948 158.221 21.888 158.517 21.888C158.637 21.888 158.741 21.892 158.829 21.9C158.925 21.908 159.013 21.928 159.093 21.96L159.081 22.824C158.961 22.784 158.849 22.76 158.745 22.752C158.649 22.736 158.537 22.728 158.409 22.728C158.057 22.728 157.749 22.812 157.485 22.98C157.229 23.148 157.033 23.364 156.897 23.628C156.769 23.892 156.705 24.172 156.705 24.468V28.02H155.721ZM162.41 28.128C161.466 28.128 160.722 27.856 160.178 27.312C159.634 26.76 159.362 25.996 159.362 25.02C159.362 24.388 159.482 23.84 159.722 23.376C159.962 22.904 160.298 22.54 160.73 22.284C161.162 22.02 161.658 21.888 162.218 21.888C162.77 21.888 163.234 22.004 163.61 22.236C163.986 22.468 164.274 22.8 164.474 23.232C164.674 23.656 164.774 24.16 164.774 24.744V25.104H160.106V24.492H164.138L163.934 24.648C163.934 24.008 163.79 23.508 163.502 23.148C163.214 22.788 162.786 22.608 162.218 22.608C161.618 22.608 161.15 22.82 160.814 23.244C160.478 23.66 160.31 24.224 160.31 24.936V25.044C160.31 25.796 160.494 26.368 160.862 26.76C161.238 27.144 161.762 27.336 162.434 27.336C162.794 27.336 163.13 27.284 163.442 27.18C163.762 27.068 164.066 26.888 164.354 26.64L164.69 27.324C164.426 27.58 164.09 27.78 163.682 27.924C163.282 28.06 162.858 28.128 162.41 28.128ZM167.966 28.128C167.486 28.128 167.038 28.064 166.622 27.936C166.206 27.8 165.862 27.612 165.59 27.372L165.926 26.688C166.222 26.92 166.542 27.092 166.886 27.204C167.238 27.316 167.602 27.372 167.978 27.372C168.458 27.372 168.818 27.288 169.058 27.12C169.306 26.944 169.43 26.704 169.43 26.4C169.43 26.168 169.35 25.984 169.19 25.848C169.038 25.704 168.786 25.592 168.434 25.512L167.318 25.284C166.806 25.172 166.422 24.984 166.166 24.72C165.91 24.448 165.782 24.104 165.782 23.688C165.782 23.336 165.874 23.028 166.058 22.764C166.242 22.492 166.51 22.28 166.862 22.128C167.214 21.968 167.626 21.888 168.098 21.888C168.538 21.888 168.942 21.956 169.31 22.092C169.686 22.22 169.998 22.408 170.246 22.656L169.898 23.328C169.658 23.096 169.382 22.924 169.07 22.812C168.766 22.692 168.45 22.632 168.122 22.632C167.65 22.632 167.294 22.728 167.054 22.92C166.822 23.104 166.706 23.348 166.706 23.652C166.706 23.884 166.778 24.076 166.922 24.228C167.074 24.372 167.306 24.48 167.618 24.552L168.734 24.78C169.278 24.9 169.682 25.088 169.946 25.344C170.218 25.592 170.354 25.928 170.354 26.352C170.354 26.712 170.254 27.028 170.054 27.3C169.854 27.564 169.574 27.768 169.214 27.912C168.862 28.056 168.446 28.128 167.966 28.128ZM173.692 28.128C173.1 28.128 172.648 27.96 172.336 27.624C172.024 27.28 171.868 26.764 171.868 26.076V22.752H170.692V21.996H171.868V20.352L172.84 20.076V21.996H174.568V22.752H172.84V25.968C172.84 26.448 172.92 26.792 173.08 27C173.248 27.2 173.496 27.3 173.824 27.3C173.976 27.3 174.112 27.288 174.232 27.264C174.352 27.232 174.46 27.196 174.556 27.156V27.972C174.444 28.02 174.308 28.056 174.148 28.08C173.996 28.112 173.844 28.128 173.692 28.128Z" fill="#555555"/>
<path d="M147.869 53.164C147.378 53.164 146.898 53.1107 146.429 53.004C145.96 52.8974 145.517 52.7427 145.101 52.54C144.696 52.3374 144.338 52.092 144.029 51.804L144.525 50.78C145.048 51.196 145.581 51.5054 146.125 51.708C146.669 51.9 147.25 51.996 147.869 51.996C148.68 51.996 149.314 51.7774 149.773 51.34C150.232 50.9027 150.461 50.3267 150.461 49.612C150.461 48.876 150.242 48.2734 149.805 47.804C149.368 47.3347 148.76 47.1 147.981 47.1C147.426 47.1 146.93 47.212 146.493 47.436C146.056 47.6494 145.677 47.9854 145.357 48.444H144.397V41.74H151.085V42.86H145.677V47.356H145.325C145.613 46.908 146.008 46.5667 146.509 46.332C147.021 46.0867 147.597 45.964 148.237 45.964C148.962 45.964 149.586 46.1134 150.109 46.412C150.642 46.7107 151.053 47.1267 151.341 47.66C151.629 48.1934 151.773 48.8174 151.773 49.532C151.773 50.2467 151.613 50.8814 151.293 51.436C150.984 51.98 150.536 52.4067 149.949 52.716C149.373 53.0147 148.68 53.164 147.869 53.164ZM156.891 53.02H155.723L162.427 41.74H163.595L156.891 53.02ZM155.755 48.508C154.891 48.508 154.208 48.204 153.707 47.596C153.216 46.9774 152.971 46.1294 152.971 45.052C152.971 43.964 153.221 43.1214 153.723 42.524C154.224 41.916 154.901 41.612 155.755 41.612C156.619 41.612 157.296 41.916 157.787 42.524C158.288 43.1214 158.539 43.964 158.539 45.052C158.539 46.1294 158.288 46.9774 157.787 47.596C157.296 48.204 156.619 48.508 155.755 48.508ZM155.755 47.58C156.277 47.58 156.683 47.372 156.971 46.956C157.269 46.5294 157.419 45.8947 157.419 45.052C157.419 44.1987 157.269 43.564 156.971 43.148C156.683 42.732 156.277 42.524 155.755 42.524C155.243 42.524 154.837 42.732 154.539 43.148C154.251 43.564 154.107 44.1987 154.107 45.052C154.107 45.9054 154.251 46.54 154.539 46.956C154.837 47.372 155.243 47.58 155.755 47.58ZM163.563 53.164C162.688 53.164 162 52.86 161.499 52.252C161.008 51.644 160.763 50.7907 160.763 49.692C160.763 48.604 161.013 47.7614 161.515 47.164C162.016 46.5667 162.699 46.268 163.563 46.268C164.427 46.268 165.104 46.572 165.595 47.18C166.096 47.7774 166.347 48.6147 166.347 49.692C166.347 50.78 166.096 51.6334 165.595 52.252C165.104 52.86 164.427 53.164 163.563 53.164ZM163.563 52.236C164.075 52.236 164.475 52.028 164.763 51.612C165.061 51.1854 165.211 50.5454 165.211 49.692C165.211 48.8494 165.061 48.22 164.763 47.804C164.475 47.388 164.075 47.18 163.563 47.18C163.04 47.18 162.635 47.388 162.347 47.804C162.059 48.22 161.915 48.8494 161.915 49.692C161.915 50.556 162.059 51.196 162.347 51.612C162.635 52.028 163.04 52.236 163.563 52.236Z" fill="#0F172A"/>
<path d="M226.438 28.02V19.56H231.838V20.376H227.41V23.316H231.574V24.144H227.41V27.192H231.838V28.02H226.438ZM234.995 28.128C234.515 28.128 234.067 28.064 233.651 27.936C233.235 27.8 232.891 27.612 232.619 27.372L232.955 26.688C233.251 26.92 233.571 27.092 233.915 27.204C234.267 27.316 234.631 27.372 235.007 27.372C235.487 27.372 235.847 27.288 236.087 27.12C236.335 26.944 236.459 26.704 236.459 26.4C236.459 26.168 236.379 25.984 236.219 25.848C236.067 25.704 235.815 25.592 235.463 25.512L234.347 25.284C233.835 25.172 233.451 24.984 233.195 24.72C232.939 24.448 232.811 24.104 232.811 23.688C232.811 23.336 232.903 23.028 233.087 22.764C233.271 22.492 233.539 22.28 233.891 22.128C234.243 21.968 234.655 21.888 235.127 21.888C235.567 21.888 235.971 21.956 236.339 22.092C236.715 22.22 237.027 22.408 237.275 22.656L236.927 23.328C236.687 23.096 236.411 22.924 236.099 22.812C235.795 22.692 235.479 22.632 235.151 22.632C234.679 22.632 234.323 22.728 234.083 22.92C233.851 23.104 233.735 23.348 233.735 23.652C233.735 23.884 233.807 24.076 233.951 24.228C234.103 24.372 234.335 24.48 234.647 24.552L235.763 24.78C236.307 24.9 236.711 25.088 236.975 25.344C237.247 25.592 237.383 25.928 237.383 26.352C237.383 26.712 237.283 27.028 237.083 27.3C236.883 27.564 236.603 27.768 236.243 27.912C235.891 28.056 235.475 28.128 234.995 28.128ZM240.721 28.128C240.129 28.128 239.677 27.96 239.365 27.624C239.053 27.28 238.897 26.764 238.897 26.076V22.752H237.721V21.996H238.897V20.352L239.869 20.076V21.996H241.597V22.752H239.869V25.968C239.869 26.448 239.949 26.792 240.109 27C240.277 27.2 240.525 27.3 240.853 27.3C241.005 27.3 241.141 27.288 241.261 27.264C241.381 27.232 241.489 27.196 241.585 27.156V27.972C241.473 28.02 241.337 28.056 241.177 28.08C241.025 28.112 240.873 28.128 240.721 28.128ZM242.481 28.02V21.996H243.453V28.02H242.481ZM242.361 20.628V19.536H243.561V20.628H242.361ZM245.04 28.02V23.388C245.04 23.164 245.028 22.936 245.004 22.704C244.988 22.464 244.968 22.228 244.944 21.996H245.88L246 23.316H245.856C246.016 22.86 246.268 22.508 246.612 22.26C246.964 22.012 247.388 21.888 247.884 21.888C248.388 21.888 248.796 22.008 249.108 22.248C249.428 22.488 249.644 22.86 249.756 23.364H249.576C249.728 22.908 249.996 22.548 250.38 22.284C250.764 22.02 251.212 21.888 251.724 21.888C252.388 21.888 252.888 22.08 253.224 22.464C253.56 22.84 253.728 23.436 253.728 24.252V28.02H252.756V24.312C252.756 23.744 252.656 23.332 252.456 23.076C252.256 22.812 251.936 22.68 251.496 22.68C250.992 22.68 250.592 22.856 250.296 23.208C250.008 23.552 249.864 24.016 249.864 24.6V28.02H248.892V24.312C248.892 23.744 248.792 23.332 248.592 23.076C248.392 22.812 248.072 22.68 247.632 22.68C247.128 22.68 246.732 22.856 246.444 23.208C246.156 23.552 246.012 24.016 246.012 24.6V28.02H245.04ZM257.567 28.128C257.031 28.128 256.563 28.004 256.163 27.756C255.763 27.5 255.451 27.14 255.227 26.676C255.011 26.212 254.903 25.656 254.903 25.008C254.903 24.352 255.011 23.792 255.227 23.328C255.451 22.864 255.763 22.508 256.163 22.26C256.563 22.012 257.031 21.888 257.567 21.888C258.111 21.888 258.579 22.028 258.971 22.308C259.371 22.58 259.635 22.952 259.763 23.424H259.619L259.751 21.996H260.687C260.663 22.228 260.639 22.464 260.615 22.704C260.599 22.936 260.591 23.164 260.591 23.388V28.02H259.619V26.604H259.751C259.623 27.076 259.359 27.448 258.959 27.72C258.559 27.992 258.095 28.128 257.567 28.128ZM257.759 27.336C258.335 27.336 258.791 27.14 259.127 26.748C259.463 26.348 259.631 25.768 259.631 25.008C259.631 24.24 259.463 23.66 259.127 23.268C258.791 22.868 258.335 22.668 257.759 22.668C257.191 22.668 256.735 22.868 256.391 23.268C256.055 23.66 255.887 24.24 255.887 25.008C255.887 25.768 256.055 26.348 256.391 26.748C256.735 27.14 257.191 27.336 257.759 27.336ZM264.307 28.128C263.715 28.128 263.263 27.96 262.951 27.624C262.639 27.28 262.483 26.764 262.483 26.076V22.752H261.307V21.996H262.483V20.352L263.455 20.076V21.996H265.183V22.752H263.455V25.968C263.455 26.448 263.535 26.792 263.695 27C263.863 27.2 264.111 27.3 264.439 27.3C264.591 27.3 264.727 27.288 264.847 27.264C264.967 27.232 265.075 27.196 265.171 27.156V27.972C265.059 28.02 264.923 28.056 264.763 28.08C264.611 28.112 264.459 28.128 264.307 28.128ZM268.683 28.128C267.739 28.128 266.995 27.856 266.451 27.312C265.907 26.76 265.635 25.996 265.635 25.02C265.635 24.388 265.755 23.84 265.995 23.376C266.235 22.904 266.571 22.54 267.003 22.284C267.435 22.02 267.931 21.888 268.491 21.888C269.043 21.888 269.507 22.004 269.883 22.236C270.259 22.468 270.547 22.8 270.747 23.232C270.947 23.656 271.047 24.16 271.047 24.744V25.104H266.379V24.492H270.411L270.207 24.648C270.207 24.008 270.063 23.508 269.775 23.148C269.487 22.788 269.059 22.608 268.491 22.608C267.891 22.608 267.423 22.82 267.087 23.244C266.751 23.66 266.583 24.224 266.583 24.936V25.044C266.583 25.796 266.767 26.368 267.135 26.76C267.511 27.144 268.035 27.336 268.707 27.336C269.067 27.336 269.403 27.284 269.715 27.18C270.035 27.068 270.339 26.888 270.627 26.64L270.963 27.324C270.699 27.58 270.363 27.78 269.955 27.924C269.555 28.06 269.131 28.128 268.683 28.128ZM274.515 28.128C273.987 28.128 273.523 28.004 273.123 27.756C272.723 27.5 272.411 27.14 272.187 26.676C271.971 26.212 271.863 25.656 271.863 25.008C271.863 24.352 271.971 23.792 272.187 23.328C272.411 22.864 272.723 22.508 273.123 22.26C273.523 22.012 273.987 21.888 274.515 21.888C275.059 21.888 275.527 22.024 275.919 22.296C276.319 22.568 276.587 22.936 276.723 23.4H276.579V19.188H277.551V28.02H276.591V26.58H276.723C276.595 27.06 276.331 27.44 275.931 27.72C275.531 27.992 275.059 28.128 274.515 28.128ZM274.719 27.336C275.287 27.336 275.743 27.14 276.087 26.748C276.431 26.348 276.603 25.768 276.603 25.008C276.603 24.24 276.431 23.66 276.087 23.268C275.743 22.868 275.287 22.668 274.719 22.668C274.151 22.668 273.695 22.868 273.351 23.268C273.015 23.66 272.847 24.24 272.847 25.008C272.847 25.768 273.015 26.348 273.351 26.748C273.695 27.14 274.151 27.336 274.719 27.336ZM282.067 28.02V19.56H283.063V28.02H282.067ZM284.764 28.02V23.388C284.764 23.164 284.752 22.936 284.728 22.704C284.712 22.464 284.692 22.228 284.668 21.996H285.604L285.724 23.316H285.58C285.756 22.852 286.036 22.5 286.42 22.26C286.812 22.012 287.264 21.888 287.776 21.888C288.488 21.888 289.024 22.08 289.384 22.464C289.752 22.84 289.936 23.436 289.936 24.252V28.02H288.964V24.312C288.964 23.744 288.848 23.332 288.616 23.076C288.392 22.812 288.04 22.68 287.56 22.68C287 22.68 286.556 22.852 286.228 23.196C285.9 23.54 285.736 24 285.736 24.576V28.02H284.764ZM293.632 28.128C293.04 28.128 292.588 27.96 292.276 27.624C291.964 27.28 291.808 26.764 291.808 26.076V22.752H290.632V21.996H291.808V20.352L292.78 20.076V21.996H294.508V22.752H292.78V25.968C292.78 26.448 292.86 26.792 293.02 27C293.188 27.2 293.436 27.3 293.764 27.3C293.916 27.3 294.052 27.288 294.172 27.264C294.292 27.232 294.4 27.196 294.496 27.156V27.972C294.384 28.02 294.248 28.056 294.088 28.08C293.936 28.112 293.784 28.128 293.632 28.128ZM298.008 28.128C297.064 28.128 296.32 27.856 295.776 27.312C295.232 26.76 294.96 25.996 294.96 25.02C294.96 24.388 295.08 23.84 295.32 23.376C295.56 22.904 295.896 22.54 296.328 22.284C296.76 22.02 297.256 21.888 297.816 21.888C298.368 21.888 298.832 22.004 299.208 22.236C299.584 22.468 299.872 22.8 300.072 23.232C300.272 23.656 300.372 24.16 300.372 24.744V25.104H295.704V24.492H299.736L299.532 24.648C299.532 24.008 299.388 23.508 299.1 23.148C298.812 22.788 298.384 22.608 297.816 22.608C297.216 22.608 296.748 22.82 296.412 23.244C296.076 23.66 295.908 24.224 295.908 24.936V25.044C295.908 25.796 296.092 26.368 296.46 26.76C296.836 27.144 297.36 27.336 298.032 27.336C298.392 27.336 298.728 27.284 299.04 27.18C299.36 27.068 299.664 26.888 299.952 26.64L300.288 27.324C300.024 27.58 299.688 27.78 299.28 27.924C298.88 28.06 298.456 28.128 298.008 28.128ZM301.536 28.02V23.448C301.536 23.208 301.528 22.964 301.512 22.716C301.504 22.468 301.488 22.228 301.464 21.996H302.4L302.52 23.46L302.352 23.472C302.432 23.112 302.572 22.816 302.772 22.584C302.972 22.352 303.208 22.18 303.48 22.068C303.752 21.948 304.036 21.888 304.332 21.888C304.452 21.888 304.556 21.892 304.644 21.9C304.74 21.908 304.828 21.928 304.908 21.96L304.896 22.824C304.776 22.784 304.664 22.76 304.56 22.752C304.464 22.736 304.352 22.728 304.224 22.728C303.872 22.728 303.564 22.812 303.3 22.98C303.044 23.148 302.848 23.364 302.712 23.628C302.584 23.892 302.52 24.172 302.52 24.468V28.02H301.536ZM308.225 28.128C307.281 28.128 306.537 27.856 305.993 27.312C305.449 26.76 305.177 25.996 305.177 25.02C305.177 24.388 305.297 23.84 305.537 23.376C305.777 22.904 306.113 22.54 306.545 22.284C306.977 22.02 307.473 21.888 308.033 21.888C308.585 21.888 309.049 22.004 309.425 22.236C309.801 22.468 310.089 22.8 310.289 23.232C310.489 23.656 310.589 24.16 310.589 24.744V25.104H305.921V24.492H309.953L309.749 24.648C309.749 24.008 309.605 23.508 309.317 23.148C309.029 22.788 308.601 22.608 308.033 22.608C307.433 22.608 306.965 22.82 306.629 23.244C306.293 23.66 306.125 24.224 306.125 24.936V25.044C306.125 25.796 306.309 26.368 306.677 26.76C307.053 27.144 307.577 27.336 308.249 27.336C308.609 27.336 308.945 27.284 309.257 27.18C309.577 27.068 309.881 26.888 310.169 26.64L310.505 27.324C310.241 27.58 309.905 27.78 309.497 27.924C309.097 28.06 308.673 28.128 308.225 28.128ZM313.78 28.128C313.3 28.128 312.852 28.064 312.436 27.936C312.02 27.8 311.676 27.612 311.404 27.372L311.74 26.688C312.036 26.92 312.356 27.092 312.7 27.204C313.052 27.316 313.416 27.372 313.792 27.372C314.272 27.372 314.632 27.288 314.872 27.12C315.12 26.944 315.244 26.704 315.244 26.4C315.244 26.168 315.164 25.984 315.004 25.848C314.852 25.704 314.6 25.592 314.248 25.512L313.132 25.284C312.62 25.172 312.236 24.984 311.98 24.72C311.724 24.448 311.596 24.104 311.596 23.688C311.596 23.336 311.688 23.028 311.872 22.764C312.056 22.492 312.324 22.28 312.676 22.128C313.028 21.968 313.44 21.888 313.912 21.888C314.352 21.888 314.756 21.956 315.124 22.092C315.5 22.22 315.812 22.408 316.06 22.656L315.712 23.328C315.472 23.096 315.196 22.924 314.884 22.812C314.58 22.692 314.264 22.632 313.936 22.632C313.464 22.632 313.108 22.728 312.868 22.92C312.636 23.104 312.52 23.348 312.52 23.652C312.52 23.884 312.592 24.076 312.736 24.228C312.888 24.372 313.12 24.48 313.432 24.552L314.548 24.78C315.092 24.9 315.496 25.088 315.76 25.344C316.032 25.592 316.168 25.928 316.168 26.352C316.168 26.712 316.068 27.028 315.868 27.3C315.668 27.564 315.388 27.768 315.028 27.912C314.676 28.056 314.26 28.128 313.78 28.128ZM319.507 28.128C318.915 28.128 318.463 27.96 318.151 27.624C317.839 27.28 317.683 26.764 317.683 26.076V22.752H316.507V21.996H317.683V20.352L318.655 20.076V21.996H320.383V22.752H318.655V25.968C318.655 26.448 318.735 26.792 318.895 27C319.063 27.2 319.311 27.3 319.639 27.3C319.791 27.3 319.927 27.288 320.047 27.264C320.167 27.232 320.275 27.196 320.371 27.156V27.972C320.259 28.02 320.123 28.056 319.963 28.08C319.811 28.112 319.659 28.128 319.507 28.128Z" fill="#555555"/>
<path d="M330.8 23.52C330.8 23.9283 330.643 24.3367 330.334 24.6458L326.53 28.4492C326.361 28.6183 326.081 28.6183 325.912 28.4492C325.743 28.28 325.743 28 325.912 27.8308L329.715 24.0275C329.995 23.7475 329.995 23.2925 329.715 23.0125L325.912 19.2092C325.743 19.04 325.743 18.76 325.912 18.5908C326.081 18.4217 326.361 18.4217 326.53 18.5908L330.334 22.3942C330.643 22.7033 330.8 23.1117 330.8 23.52Z" fill="#999999"/>
<path d="M249.877 54.86V52.796L250.197 53.1C249.419 53.0894 248.688 52.9774 248.005 52.764C247.323 52.54 246.725 52.2147 246.213 51.788L246.757 50.476C247.269 50.8814 247.813 51.1854 248.389 51.388C248.976 51.5907 249.637 51.692 250.373 51.692C251.237 51.692 251.872 51.532 252.277 51.212C252.693 50.8814 252.901 50.4654 252.901 49.964C252.901 49.548 252.752 49.2174 252.453 48.972C252.165 48.7267 251.675 48.5294 250.981 48.38L249.333 48.028C248.352 47.8147 247.627 47.4627 247.157 46.972C246.688 46.4814 246.453 45.8307 246.453 45.02C246.453 44.3907 246.603 43.8307 246.901 43.34C247.211 42.8494 247.637 42.46 248.181 42.172C248.736 41.884 249.381 41.7187 250.117 41.676L249.877 41.9V39.9H251.189V41.9L250.917 41.676C251.515 41.6974 252.107 41.82 252.693 42.044C253.28 42.2574 253.776 42.5774 254.181 43.004L253.653 44.268C253.237 43.8627 252.768 43.564 252.245 43.372C251.723 43.1694 251.147 43.068 250.517 43.068C249.749 43.068 249.141 43.244 248.693 43.596C248.256 43.948 248.037 44.4067 248.037 44.972C248.037 45.3987 248.176 45.7454 248.453 46.012C248.731 46.2787 249.189 46.4814 249.829 46.62L251.477 46.972C252.501 47.1854 253.264 47.5267 253.765 47.996C254.267 48.4654 254.517 49.0894 254.517 49.868C254.517 50.476 254.363 51.0147 254.053 51.484C253.744 51.9427 253.317 52.3107 252.773 52.588C252.24 52.8547 251.621 53.02 250.917 53.084L251.189 52.78V54.86H249.877ZM256.787 53.02V51.628H259.411V43.148H260.243L257.043 45.1V43.5L259.875 41.74H261.075V51.628H263.539V53.02H256.787ZM268.961 53.164C267.66 53.164 266.657 52.668 265.953 51.676C265.26 50.6734 264.913 49.2387 264.913 47.372C264.913 45.4734 265.26 44.0387 265.953 43.068C266.657 42.0867 267.66 41.596 268.961 41.596C270.273 41.596 271.276 42.0867 271.969 43.068C272.662 44.0387 273.009 45.468 273.009 47.356C273.009 49.2334 272.657 50.6734 271.953 51.676C271.26 52.668 270.262 53.164 268.961 53.164ZM268.961 51.772C269.782 51.772 270.39 51.4147 270.785 50.7C271.19 49.9854 271.393 48.8707 271.393 47.356C271.393 45.8307 271.19 44.7214 270.785 44.028C270.39 43.324 269.782 42.972 268.961 42.972C268.15 42.972 267.542 43.324 267.137 44.028C266.732 44.7214 266.529 45.8254 266.529 47.34C266.529 48.8654 266.732 49.9854 267.137 50.7C267.553 51.4147 268.161 51.772 268.961 51.772ZM278.415 53.164C277.924 53.164 277.439 53.1107 276.959 53.004C276.479 52.8974 276.031 52.748 275.615 52.556C275.199 52.3534 274.836 52.1134 274.527 51.836L275.103 50.572C275.615 50.9667 276.137 51.2654 276.671 51.468C277.215 51.66 277.785 51.756 278.383 51.756C279.14 51.756 279.732 51.5587 280.159 51.164C280.596 50.7694 280.815 50.2414 280.815 49.58C280.815 48.8974 280.607 48.348 280.191 47.932C279.785 47.5054 279.22 47.292 278.495 47.292C277.993 47.292 277.535 47.3934 277.119 47.596C276.713 47.7987 276.356 48.108 276.047 48.524H274.895V41.74H281.727V43.132H276.479V47.196H276.063C276.351 46.7907 276.735 46.476 277.215 46.252C277.705 46.028 278.255 45.916 278.863 45.916C279.588 45.916 280.217 46.0654 280.751 46.364C281.284 46.6627 281.695 47.0787 281.983 47.612C282.281 48.1454 282.431 48.7747 282.431 49.5C282.431 50.2254 282.265 50.8654 281.935 51.42C281.615 51.964 281.151 52.3907 280.543 52.7C279.945 53.0094 279.236 53.164 278.415 53.164ZM287.548 53.164C286.247 53.164 285.244 52.668 284.54 51.676C283.847 50.6734 283.5 49.2387 283.5 47.372C283.5 45.4734 283.847 44.0387 284.54 43.068C285.244 42.0867 286.247 41.596 287.548 41.596C288.86 41.596 289.863 42.0867 290.556 43.068C291.25 44.0387 291.596 45.468 291.596 47.356C291.596 49.2334 291.244 50.6734 290.54 51.676C289.847 52.668 288.85 53.164 287.548 53.164ZM287.548 51.772C288.37 51.772 288.978 51.4147 289.372 50.7C289.778 49.9854 289.98 48.8707 289.98 47.356C289.98 45.8307 289.778 44.7214 289.372 44.028C288.978 43.324 288.37 42.972 287.548 42.972C286.738 42.972 286.13 43.324 285.724 44.028C285.319 44.7214 285.116 45.8254 285.116 47.34C285.116 48.8654 285.319 49.9854 285.724 50.7C286.14 51.4147 286.748 51.772 287.548 51.772ZM292.986 53.02V51.116H294.89V53.02H292.986ZM300.339 53.164C299.038 53.164 298.035 52.668 297.331 51.676C296.638 50.6734 296.291 49.2387 296.291 47.372C296.291 45.4734 296.638 44.0387 297.331 43.068C298.035 42.0867 299.038 41.596 300.339 41.596C301.651 41.596 302.654 42.0867 303.347 43.068C304.04 44.0387 304.387 45.468 304.387 47.356C304.387 49.2334 304.035 50.6734 303.331 51.676C302.638 52.668 301.64 53.164 300.339 53.164ZM300.339 51.772C301.16 51.772 301.768 51.4147 302.163 50.7C302.568 49.9854 302.771 48.8707 302.771 47.356C302.771 45.8307 302.568 44.7214 302.163 44.028C301.768 43.324 301.16 42.972 300.339 42.972C299.528 42.972 298.92 43.324 298.515 44.028C298.11 44.7214 297.907 45.8254 297.907 47.34C297.907 48.8654 298.11 49.9854 298.515 50.7C298.931 51.4147 299.539 51.772 300.339 51.772ZM309.633 53.164C308.331 53.164 307.329 52.668 306.625 51.676C305.931 50.6734 305.585 49.2387 305.585 47.372C305.585 45.4734 305.931 44.0387 306.625 43.068C307.329 42.0867 308.331 41.596 309.633 41.596C310.945 41.596 311.947 42.0867 312.641 43.068C313.334 44.0387 313.681 45.468 313.681 47.356C313.681 49.2334 313.329 50.6734 312.625 51.676C311.931 52.668 310.934 53.164 309.633 53.164ZM309.633 51.772C310.454 51.772 311.062 51.4147 311.457 50.7C311.862 49.9854 312.065 48.8707 312.065 47.356C312.065 45.8307 311.862 44.7214 311.457 44.028C311.062 43.324 310.454 42.972 309.633 42.972C308.822 42.972 308.214 43.324 307.809 44.028C307.403 44.7214 307.201 45.8254 307.201 47.34C307.201 48.8654 307.403 49.9854 307.809 50.7C308.225 51.4147 308.833 51.772 309.633 51.772Z" fill="#6E65D9"/>
</g>
<defs>
<filter id="filter0_d_1_7855" x="0" y="0.0200195" width="351" height="78" filterUnits="userSpaceOnUse" color-interpolation-filters="sRGB">
<feFlood flood-opacity="0" result="BackgroundImageFix"/>
<feColorMatrix in="SourceAlpha" type="matrix" values="0 0 0 0 0 0 0 0 0 0 0 0 0 0 0 0 0 0 127 0" result="hardAlpha"/>
<feOffset dy="2"/>
<feGaussianBlur stdDeviation="2"/>
<feComposite in2="hardAlpha" operator="out"/>
<feColorMatrix type="matrix" values="0 0 0 0 0 0 0 0 0 0 0 0 0 0 0 0 0 0 0.1 0"/>
<feBlend mode="normal" in2="BackgroundImageFix" result="effect1_dropShadow_1_7855"/>
<feBlend mode="normal" in="SourceGraphic" in2="effect1_dropShadow_1_7855" result="shape"/>
</filter>
</defs>
</svg>
