<svg width="51" height="35" viewBox="0 0 51 35" fill="none" xmlns="http://www.w3.org/2000/svg">
<mask id="mask0_61_258" style="mask-type:alpha" maskUnits="userSpaceOnUse" x="0" y="0" width="51" height="35">
<path d="M45.4074 0.345276H4.97021C2.34282 0.345276 0.212891 2.39298 0.212891 4.91894V30.0741C0.212891 32.6001 2.34282 34.6478 4.97021 34.6478H45.4074C48.0348 34.6478 50.1648 32.6001 50.1648 30.0741V4.91894C50.1648 2.39298 48.0348 0.345276 45.4074 0.345276Z" fill="white"/>
</mask>
<g mask="url(#mask0_61_258)">
<path d="M45.4074 0.345276H4.97021C2.34282 0.345276 0.212891 2.39298 0.212891 4.91894V30.0741C0.212891 32.6001 2.34282 34.6478 4.97021 34.6478H45.4074C48.0348 34.6478 50.1648 32.6001 50.1648 30.0741V4.91894C50.1648 2.39298 48.0348 0.345276 45.4074 0.345276Z" fill="#FDD200"/>
<path fill-rule="evenodd" clip-rule="evenodd" d="M0.212891 23.2136H50.1648V34.6478H0.212891V23.2136Z" fill="#006C3D"/>
<path fill-rule="evenodd" clip-rule="evenodd" d="M0.212891 0.345276H50.1648V11.7794H0.212891V0.345276Z" fill="#D0091E"/>
<path fill-rule="evenodd" clip-rule="evenodd" d="M25.1887 20.355L21.692 22.1228L22.3581 18.3792L19.5322 15.7265L23.4404 15.1845L25.1887 11.7794L26.937 15.1868L30.8451 15.7288L28.0145 18.3815L28.6806 22.1228" fill="black"/>
<path d="M45.4076 1.48871H4.97033C2.99979 1.48871 1.40234 3.02448 1.40234 4.91896V30.0741C1.40234 31.9686 2.99979 33.5044 4.97033 33.5044H45.4076C47.3781 33.5044 48.9755 31.9686 48.9755 30.0741V4.91896C48.9755 3.02448 47.3781 1.48871 45.4076 1.48871Z" stroke="black" stroke-opacity="0.1"/>
</g>
</svg>
