<svg width="51" height="35" viewBox="0 0 51 35" fill="none" xmlns="http://www.w3.org/2000/svg">
<mask id="mask0_61_317" style="mask-type:alpha" maskUnits="userSpaceOnUse" x="0" y="0" width="51" height="35">
<path d="M46.094 0.354187H5.65673C3.02934 0.354187 0.899414 2.40189 0.899414 4.92785V30.083C0.899414 32.609 3.02934 34.6567 5.65673 34.6567H46.094C48.7214 34.6567 50.8513 32.609 50.8513 30.083V4.92785C50.8513 2.40189 48.7214 0.354187 46.094 0.354187Z" fill="white"/>
</mask>
<g mask="url(#mask0_61_317)">
<path d="M46.094 0.354187H5.65673C3.02934 0.354187 0.899414 2.40189 0.899414 4.92785V30.083C0.899414 32.609 3.02934 34.6567 5.65673 34.6567H46.094C48.7214 34.6567 50.8513 32.609 50.8513 30.083V4.92785C50.8513 2.40189 48.7214 0.354187 46.094 0.354187Z" fill="black"/>
<path fill-rule="evenodd" clip-rule="evenodd" d="M0.899414 23.2225H50.8513V25.5094H0.899414V23.2225Z" fill="white"/>
<path fill-rule="evenodd" clip-rule="evenodd" d="M0.899414 25.5093H50.8513V34.6567H0.899414V25.5093Z" fill="#006700"/>
<path fill-rule="evenodd" clip-rule="evenodd" d="M0.899414 11.7883H50.8513V23.2225H0.899414V11.7883Z" fill="#BD0000"/>
<path fill-rule="evenodd" clip-rule="evenodd" d="M0.899414 9.50153H50.8513V11.7884H0.899414V9.50153Z" fill="white"/>
<path fill-rule="evenodd" clip-rule="evenodd" d="M30.4278 13.8785C30.5991 13.8785 31.6172 12.3463 31.6172 10.4483C31.6172 8.55476 30.5991 7.01801 30.4278 7.01801C30.2613 7.01801 29.2385 8.55476 29.2385 10.4483C29.2385 12.3463 30.2613 13.8785 30.4278 13.8785ZM23.437 12.8746C23.318 12.9889 21.4627 12.6002 20.0735 11.2578C18.682 9.91771 18.2729 8.13855 18.3942 8.02421C18.5131 7.90987 20.3637 8.29863 21.7576 9.641C23.1515 10.9811 23.5583 12.7602 23.4393 12.8769L23.437 12.8746ZM27.9065 23.2408C28.0254 23.1333 29.8807 23.4992 31.2723 24.7501C32.6638 26.0079 33.0729 27.6704 32.954 27.7779C32.835 27.8854 30.9797 27.5195 29.5858 26.2686C28.1943 25.0108 27.7851 23.3483 27.9065 23.2408ZM23.437 23.2408C23.318 23.1333 21.4627 23.4992 20.0735 24.7501C18.682 26.0079 18.2729 27.6704 18.3942 27.7779C18.5131 27.8854 20.3637 27.5195 21.7576 26.2686C23.1515 25.0108 23.5583 23.3483 23.4393 23.2408H23.437Z" fill="white"/>
<path fill-rule="evenodd" clip-rule="evenodd" d="M25.8754 27.7962C26.7245 27.7962 31.822 23.1882 31.822 17.5054C31.822 11.8226 26.7245 7.21466 25.8754 7.21466C25.0262 7.21466 19.9287 11.8226 19.9287 17.5054C19.9287 23.1882 25.0262 27.7962 25.8754 27.7962Z" fill="#BD0000"/>
<path fill-rule="evenodd" clip-rule="evenodd" d="M21.118 20.9357C21.2845 20.9357 22.3074 19.3989 22.3074 17.5054C22.3074 15.6119 21.2845 14.0752 21.118 14.0752C20.9515 14.0752 19.9287 15.6119 19.9287 17.5054C19.9287 19.3989 20.9515 20.9357 21.118 20.9357ZM30.6327 20.9357C30.7992 20.9357 31.822 19.3989 31.822 17.5054C31.822 15.6119 30.7992 14.0752 30.6327 14.0752C30.4662 14.0752 29.4434 15.6119 29.4434 17.5054C29.4434 19.3989 30.4662 20.9357 30.6327 20.9357Z" fill="black"/>
<path d="M27.0642 17.5054C27.0642 15.611 26.5317 14.0752 25.8749 14.0752C25.218 14.0752 24.6855 15.611 24.6855 17.5054C24.6855 19.3999 25.218 20.9357 25.8749 20.9357C26.5317 20.9357 27.0642 19.3999 27.0642 17.5054Z" fill="white"/>
<path d="M46.0941 1.49762H5.65686C3.68631 1.49762 2.08887 3.03339 2.08887 4.92787V30.083C2.08887 31.9775 3.68631 33.5133 5.65686 33.5133H46.0941C48.0646 33.5133 49.6621 31.9775 49.6621 30.083V4.92787C49.6621 3.03339 48.0646 1.49762 46.0941 1.49762Z" stroke="black" stroke-opacity="0.1"/>
</g>
</svg>
