<svg width="50" height="35" viewBox="0 0 50 35" fill="none" xmlns="http://www.w3.org/2000/svg">
<mask id="mask0_61_208" style="mask-type:alpha" maskUnits="userSpaceOnUse" x="0" y="0" width="50" height="35">
<path d="M45.2356 0.354187H4.79834C2.17094 0.354187 0.0410156 2.40189 0.0410156 4.92785V30.083C0.0410156 32.609 2.17094 34.6567 4.79834 34.6567H45.2356C47.863 34.6567 49.9929 32.609 49.9929 30.083V4.92785C49.9929 2.40189 47.863 0.354187 45.2356 0.354187Z" fill="white"/>
</mask>
<g mask="url(#mask0_61_208)">
<path d="M45.2356 0.354187H4.79834C2.17094 0.354187 0.0410156 2.40189 0.0410156 4.92785V30.083C0.0410156 32.609 2.17094 34.6567 4.79834 34.6567H45.2356C47.863 34.6567 49.9929 32.609 49.9929 30.083V4.92785C49.9929 2.40189 47.863 0.354187 45.2356 0.354187Z" fill="white"/>
<path fill-rule="evenodd" clip-rule="evenodd" d="M0.0410156 0.354187H16.6916V34.6567H0.0410156V0.354187ZM33.3423 0.354187H49.9929V34.6567H33.3423V0.354187Z" fill="#00884F"/>
<path d="M45.2357 1.49762H4.79846C2.82791 1.49762 1.23047 3.03339 1.23047 4.92787V30.083C1.23047 31.9775 2.82791 33.5133 4.79846 33.5133H45.2357C47.2062 33.5133 48.8037 31.9775 48.8037 30.083V4.92787C48.8037 3.03339 47.2062 1.49762 45.2357 1.49762Z" stroke="black" stroke-opacity="0.1"/>
</g>
</svg>
