<svg width="51" height="35" viewBox="0 0 51 35" fill="none" xmlns="http://www.w3.org/2000/svg">
<mask id="mask0_61_277" style="mask-type:alpha" maskUnits="userSpaceOnUse" x="0" y="0" width="51" height="35">
<path d="M45.5793 0.354187H5.14209C2.51469 0.354187 0.384766 2.40189 0.384766 4.92785V30.083C0.384766 32.609 2.51469 34.6567 5.14209 34.6567H45.5793C48.2067 34.6567 50.3366 32.609 50.3366 30.083V4.92785C50.3366 2.40189 48.2067 0.354187 45.5793 0.354187Z" fill="white"/>
</mask>
<g mask="url(#mask0_61_277)">
<path d="M45.5793 0.354187H5.14209C2.51469 0.354187 0.384766 2.40189 0.384766 4.92785V30.083C0.384766 32.609 2.51469 34.6567 5.14209 34.6567H45.5793C48.2067 34.6567 50.3366 32.609 50.3366 30.083V4.92785C50.3366 2.40189 48.2067 0.354187 45.5793 0.354187Z" fill="white"/>
<path fill-rule="evenodd" clip-rule="evenodd" d="M0.384766 23.2225H50.3366V34.6567H0.384766V23.2225Z" fill="#02269F"/>
<path fill-rule="evenodd" clip-rule="evenodd" d="M0.384766 0.354187H50.3366V11.7884H0.384766V0.354187Z" fill="#E24038"/>
<path fill-rule="evenodd" clip-rule="evenodd" d="M19.445 23.2225L5.14209 34.7321H0.384766V0.354187H5.14209L19.414 11.7884H50.3366V23.2225H19.445Z" fill="white"/>
<path fill-rule="evenodd" clip-rule="evenodd" d="M18.7004 20.9357L1.5741 34.6567L0.384766 34.7321V0.354187H1.5741L18.7004 14.0752H50.3366V20.9357H18.7004Z" fill="#008557"/>
<path fill-rule="evenodd" clip-rule="evenodd" d="M0.384766 7.21466L14.6567 17.5054L0.384766 27.7962V7.21466Z" fill="#FFBE0F"/>
<path fill-rule="evenodd" clip-rule="evenodd" d="M0.384766 9.50153L11.6834 17.5054L0.384766 25.5094V9.50153Z" fill="black"/>
<path d="M45.5794 1.49762H5.14221C3.17166 1.49762 1.57422 3.03339 1.57422 4.92787V30.083C1.57422 31.9775 3.17166 33.5133 5.14221 33.5133H45.5794C47.55 33.5133 49.1474 31.9775 49.1474 30.083V4.92787C49.1474 3.03339 47.55 1.49762 45.5794 1.49762Z" stroke="black" stroke-opacity="0.1"/>
</g>
</svg>
