<svg width="51" height="35" viewBox="0 0 51 35" fill="none" xmlns="http://www.w3.org/2000/svg">
<mask id="mask0_61_238" style="mask-type:alpha" maskUnits="userSpaceOnUse" x="0" y="0" width="51" height="35">
<path d="M45.9221 0.345276H5.48486C2.85746 0.345276 0.727539 2.39298 0.727539 4.91894V30.0741C0.727539 32.6001 2.85746 34.6478 5.48486 34.6478H45.9221C48.5495 34.6478 50.6794 32.6001 50.6794 30.0741V4.91894C50.6794 2.39298 48.5495 0.345276 45.9221 0.345276Z" fill="white"/>
</mask>
<g mask="url(#mask0_61_238)">
<path d="M45.9221 0.345276H5.48486C2.85746 0.345276 0.727539 2.39298 0.727539 4.91894V30.0741C0.727539 32.6001 2.85746 34.6478 5.48486 34.6478H45.9221C48.5495 34.6478 50.6794 32.6001 50.6794 30.0741V4.91894C50.6794 2.39298 48.5495 0.345276 45.9221 0.345276Z" fill="#2B9300"/>
<path fill-rule="evenodd" clip-rule="evenodd" d="M0.727539 4.91895H50.6794V30.0741H0.727539V4.91895Z" fill="#FFD300"/>
<path fill-rule="evenodd" clip-rule="evenodd" d="M0.727539 9.49261H50.6794V25.5004H0.727539V9.49261Z" fill="#E11C00"/>
<path fill-rule="evenodd" clip-rule="evenodd" d="M0.727539 14.0663H50.6794V20.9268H0.727539V14.0663Z" fill="black"/>
<path fill-rule="evenodd" clip-rule="evenodd" d="M3.1062 0.345276L29.2715 17.4965L3.1062 34.6478H0.727539V0.345276" fill="black"/>
<path fill-rule="evenodd" clip-rule="evenodd" d="M0.727539 0.345276L26.8928 17.4965L0.727539 34.6478V0.345276Z" fill="white"/>
<path fill-rule="evenodd" clip-rule="evenodd" d="M11.4318 20.355L7.93521 22.1228L8.60124 18.3792L5.77539 15.7265L9.68353 15.1845L11.4318 11.7794L13.1802 15.1868L17.0883 15.7288L14.2577 18.3815L14.9237 22.1228" fill="#E11C00"/>
<path fill-rule="evenodd" clip-rule="evenodd" d="M7.86328 20.9268H14.9993V18.64L12.6206 16.3531C12.6206 16.3531 12.6206 14.0663 10.2419 14.0663H7.86328L10.2419 16.3531L7.86328 20.9268Z" fill="#FFC700"/>
<path d="M45.9222 1.48871H5.48498C3.51444 1.48871 1.91699 3.02448 1.91699 4.91896V30.0741C1.91699 31.9686 3.51444 33.5044 5.48498 33.5044H45.9222C47.8928 33.5044 49.4902 31.9686 49.4902 30.0741V4.91896C49.4902 3.02448 47.8928 1.48871 45.9222 1.48871Z" stroke="black" stroke-opacity="0.1"/>
</g>
</svg>
